<?xml version="1.0" ?><svg data-name="Layer 1" id="Layer_1" viewBox="0 0 32 32" xmlns="http://www.w3.org/2000/svg"><defs><style>.cls-1{fill:#ba63c6;}</style></defs><title/><path class="cls-1" d="M16,32a2,2,0,0,1-1.94-1.51c-.8-3.19-2.71-5.3-4.74-7.54C6.7,20.07,4,17.09,4,12a12,12,0,0,1,24,0c0,5.09-2.7,8.07-5.32,10.95-2,2.23-3.95,4.35-4.74,7.54A2,2,0,0,1,16,32ZM16,4a8,8,0,0,0-8,8c0,3.55,1.89,5.63,4.28,8.26A31.57,31.57,0,0,1,16,24.95a31.57,31.57,0,0,1,3.72-4.69C22.11,17.63,24,15.55,24,12A8,8,0,0,0,16,4Z"/></svg>